<?xml version="1.0" standalone="no"?>
<!DOCTYPE svg PUBLIC "-//W3C//DTD SVG 20010904//EN"
 "http://www.w3.org/TR/2001/REC-SVG-20010904/DTD/svg10.dtd">
<svg version="1.0" xmlns="http://www.w3.org/2000/svg"
 width="256.000000pt" height="256.000000pt" viewBox="0 0 256.000000 256.000000"
 preserveAspectRatio="xMidYMid meet">
<metadata>
Created by potrace 1.14, written by Peter Selinger 2001-2017
</metadata>
<g transform="translate(0.000000,256.000000) scale(0.100000,-0.100000)"
fill="#000000" stroke="none">
<path d="M1219 2391 c-70 -17 -118 -72 -205 -237 -66 -127 -140 -268 -184
-349 -324 -605 -349 -666 -345 -860 3 -113 12 -174 37 -250 90 -263 304 -451
588 -516 59 -13 238 -17 310 -6 53 8 182 51 226 75 18 9 49 26 70 37 62 31
215 190 259 270 70 124 97 230 100 390 3 155 -27 254 -143 476 -105 202 -171
329 -202 384 -15 28 -62 118 -105 200 -43 83 -93 176 -111 208 -19 32 -34 61
-34 65 0 14 -72 83 -103 98 -33 18 -116 25 -158 15z"/>
</g>
</svg>
