<?xml version="1.0" standalone="no"?>
<!DOCTYPE svg PUBLIC "-//W3C//DTD SVG 20010904//EN"
 "http://www.w3.org/TR/2001/REC-SVG-20010904/DTD/svg10.dtd">
<svg version="1.0" xmlns="http://www.w3.org/2000/svg"
 width="256.000000pt" height="256.000000pt" viewBox="0 0 256.000000 256.000000"
 preserveAspectRatio="xMidYMid meet">
<metadata>
Created by potrace 1.14, written by Peter Selinger 2001-2017
</metadata>
<g transform="translate(0.000000,256.000000) scale(0.100000,-0.100000)"
fill="#000000" stroke="none">
<path d="M1182 2373 c-69 -34 -65 -27 -420 -699 -185 -349 -234 -452 -256
-541 -34 -139 -28 -293 19 -441 77 -241 287 -434 550 -503 112 -29 298 -29
410 0 211 56 397 199 494 381 29 54 53 134 44 144 -2 2 -30 -7 -60 -21 -52
-24 -60 -25 -117 -15 -70 13 -241 95 -331 158 -71 50 -110 91 -154 161 -51 81
-57 110 -77 363 -17 207 -26 742 -17 903 l8 127 -30 0 c-16 0 -45 -8 -63 -17z"/>
</g>
</svg>
